<svg width="48" height="48" viewBox="0 0 32 32" fill="none" xmlns="http://www.w3.org/2000/svg"><path d="M14.2321 25.4561H4.0001C3.62879 25.4561 3.2727 25.3086 3.01015 25.046C2.7476 24.7835 2.6001 24.4274 2.6001 24.0561V4.0001C2.6022 3.62944 2.75037 3.27457 3.01247 3.01247C3.27457 2.75037 3.62944 2.6022 4.0001 2.6001H24.0561C24.4274 2.6001 24.7835 2.7476 25.046 3.01015C25.3086 3.2727 25.4561 3.62879 25.4561 4.0001V17.1761C25.4561 17.4413 25.5615 17.6957 25.749 17.8832C25.9365 18.0707 26.1909 18.1761 26.4561 18.1761C26.7213 18.1761 26.9757 18.0707 27.1632 17.8832C27.3507 17.6957 27.4561 17.4413 27.4561 17.1761V4.0001C27.454 3.09901 27.0951 2.23543 26.4579 1.59827C25.8208 0.961102 24.9572 0.60221 24.0561 0.600098H4.0001C3.09901 0.60221 2.23543 0.961102 1.59827 1.59827C0.961102 2.23543 0.60221 3.09901 0.600098 4.0001V24.0561C0.600098 24.5026 0.688041 24.9447 0.858907 25.3572C1.02977 25.7697 1.28022 26.1445 1.59593 26.4603C1.91165 26.776 2.28647 27.0264 2.69897 27.1973C3.11148 27.3681 3.5536 27.4561 4.0001 27.4561H14.2321C14.4973 27.4561 14.7517 27.3507 14.9392 27.1632C15.1267 26.9757 15.2321 26.7213 15.2321 26.4561C15.2321 26.1909 15.1267 25.9365 14.9392 25.749C14.7517 25.5615 14.4973 25.4561 14.2321 25.4561V25.4561Z" fill="#1D1C1D"></path><path d="M25.3603 24.92C24.9982 24.9158 24.6523 24.769 24.3977 24.5114C24.1431 24.2538 24.0003 23.9062 24.0003 23.544C24.0008 23.3173 24.0586 23.0944 24.1683 22.896H24.0003C23.5731 22.896 23.1555 23.0227 22.8003 23.26C22.4451 23.4974 22.1682 23.8347 22.0048 24.2294C21.8413 24.6241 21.7985 25.0584 21.8818 25.4774C21.9652 25.8964 22.1709 26.2813 22.473 26.5833C22.7751 26.8854 23.1599 27.0911 23.5789 27.1745C23.9979 27.2578 24.4322 27.2151 24.8269 27.0516C25.2216 26.8881 25.559 26.6112 25.7963 26.256C26.0337 25.9008 26.1603 25.4832 26.1603 25.056C26.1682 24.9361 26.1682 24.8159 26.1603 24.696C25.9238 24.8528 25.6439 24.9311 25.3603 24.92V24.92Z" fill="#1D1C1D"></path><path d="M31.3519 24.6802C30.7383 23.2347 29.7129 22.0018 28.4034 21.135C27.0939 20.2683 25.5583 19.8062 23.9879 19.8062C22.4176 19.8062 20.882 20.2683 19.5725 21.135C18.263 22.0018 17.2375 23.2347 16.6239 24.6802C16.5284 24.9135 16.5284 25.175 16.6239 25.4082C17.2375 26.8537 18.263 28.0867 19.5725 28.9534C20.882 29.8201 22.4176 30.2823 23.9879 30.2823C25.5583 30.2823 27.0939 29.8201 28.4034 28.9534C29.7129 28.0867 30.7383 26.8537 31.3519 25.4082C31.4396 25.1735 31.4396 24.915 31.3519 24.6802V24.6802ZM23.9999 28.2962C22.8988 28.2982 21.8185 27.996 20.8783 27.4228C19.9381 26.8497 19.1746 26.0279 18.6719 25.0482C19.1757 24.0692 19.9394 23.248 20.8793 22.6746C21.8192 22.1012 22.8989 21.7978 23.9999 21.7978C25.1009 21.7978 26.1806 22.1012 27.1205 22.6746C28.0604 23.248 28.8242 24.0692 29.3279 25.0482C28.8253 26.0279 28.0617 26.8497 27.1215 27.4228C26.1813 27.996 25.1011 28.2982 23.9999 28.2962V28.2962Z" fill="#1D1C1D"></path><path d="M18.4719 17.2722C18.7265 17.2722 18.9707 17.1711 19.1507 16.991C19.3307 16.811 19.4319 16.5668 19.4319 16.3122C19.4319 16.0576 19.3307 15.8134 19.1507 15.6334C18.9707 15.4534 18.7265 15.3522 18.4719 15.3522H16.7439L17.2399 11.9442H19.1999C19.3328 11.9564 19.4668 11.9407 19.5933 11.8982C19.7198 11.8557 19.836 11.7873 19.9346 11.6973C20.0331 11.6074 20.1119 11.4978 20.1657 11.3758C20.2196 11.2537 20.2474 11.1217 20.2474 10.9882C20.2474 10.8548 20.2196 10.7228 20.1657 10.6007C20.1119 10.4786 20.0331 10.3691 19.9346 10.2791C19.836 10.1892 19.7198 10.1208 19.5933 10.0782C19.4668 10.0357 19.3328 10.0201 19.1999 10.0322H17.5199L17.7519 8.47222C17.7787 8.3441 17.7791 8.21184 17.7529 8.08358C17.7268 7.95531 17.6746 7.83376 17.5998 7.72638C17.5249 7.61899 17.4289 7.52806 17.3176 7.45916C17.2062 7.39026 17.082 7.34485 16.9525 7.32573C16.823 7.30661 16.691 7.31417 16.5645 7.34795C16.438 7.38174 16.3198 7.44103 16.2171 7.52219C16.1144 7.60334 16.0294 7.70465 15.9673 7.81987C15.9051 7.9351 15.8672 8.06181 15.8559 8.19222L15.5839 10.0322H13.0639L13.2959 8.47222C13.3171 8.22848 13.2444 7.98583 13.0927 7.79385C12.9411 7.60188 12.7218 7.47506 12.4798 7.43932C12.2377 7.40358 11.9912 7.4616 11.7904 7.60153C11.5897 7.74147 11.45 7.95275 11.3999 8.19222L11.1279 10.0322H8.79989C8.667 10.0201 8.53303 10.0357 8.40653 10.0782C8.28003 10.1208 8.16379 10.1892 8.06522 10.2791C7.96664 10.3691 7.88791 10.4786 7.83404 10.6007C7.78017 10.7228 7.75235 10.8548 7.75235 10.9882C7.75235 11.1217 7.78017 11.2537 7.83404 11.3758C7.88791 11.4978 7.96664 11.6074 8.06522 11.6973C8.16379 11.7873 8.28003 11.8557 8.40653 11.8982C8.53303 11.9407 8.667 11.9564 8.79989 11.9442H10.8639L10.3679 15.3522H8.04789C7.79328 15.3522 7.5491 15.4534 7.36907 15.6334C7.18903 15.8134 7.08789 16.0576 7.08789 16.3122C7.08789 16.5668 7.18903 16.811 7.36907 16.991C7.5491 17.1711 7.79328 17.2722 8.04789 17.2722H10.0719L9.72789 19.5842C9.69108 19.8344 9.75445 20.089 9.90424 20.2927C10.054 20.4964 10.2781 20.6328 10.5279 20.6722H10.6719C10.8983 20.6716 11.1172 20.591 11.29 20.4446C11.4627 20.2982 11.5782 20.0955 11.6159 19.8722L11.9999 17.2722H14.5199L14.1759 19.5842C14.1391 19.8344 14.2025 20.089 14.3522 20.2927C14.502 20.4964 14.7261 20.6328 14.9759 20.6722H15.1199C15.3468 20.6732 15.5665 20.5932 15.7396 20.4465C15.9127 20.2998 16.0277 20.0962 16.0639 19.8722L16.4479 17.2802L18.4719 17.2722ZM12.2879 15.3522L12.7999 11.9442H15.3199L14.8239 15.3522H12.2879Z" fill="#1D1C1D"></path></svg>